<svg xmlns="http://www.w3.org/2000/svg" viewBox="0 0 512 512">
  <rect width="512" height="512" rx="112" fill="#202124"/>
  <circle cx="256" cy="256" r="146" fill="#8ab4f8" opacity=".14"/>
  <path fill="#8ab4f8" d="M256 104c11 0 20 7 23 18l22 76 78-18c11-3 22 3 27 13 5 10 2 22-6 29l-58 54 58 54c8 7 11 19 6 29-5 10-16 16-27 13l-78-18-22 76c-3 11-12 18-23 18s-20-7-23-18l-22-76-78 18c-11 3-22-3-27-13-5-10-2-22 6-29l58-54-58-54c-8-7-11-19-6-29 5-10 16-16 27-13l78 18 22-76c3-11 12-18 23-18z"/>
  <circle cx="256" cy="256" r="54" fill="#202124"/>
</svg>
